# xmcd CD database file
#
# Track frame offsets:
#	150
#	120704
#	204684
#
# Disc length: 3443 seconds
#
# Revision: 0
# Processed by: cddbd v1.5.2PL0 Copyright (c) Steve Scherf et al.
# Submitted via: CDex 1.70beta2
#
DISCID=260d7103
DTITLE=Rodrigo Amado - The Freedom Principle
DYEAR=2013
DGENRE=Jazz
TTITLE0=The Freedom Principle
TTITLE1=Shadows
TTITLE2=Peppr Packed
EXTD=YEAR: 2013
EXTT0=
EXTT1=
EXTT2=
PLAYORDER=
